<?xml version="1.0" encoding="UTF-8"?>
<svg version="1.1" xmlns="http://www.w3.org/2000/svg" width="160" height="160">
<path d="M0 0 C12.1548776 9.86676933 20.79358545 22.09785598 23.41943359 37.81054688 C23.66780654 42.49538747 23.65064232 47.18227566 23.66943359 51.87304688 C23.70037109 53.76313477 23.70037109 53.76313477 23.73193359 55.69140625 C23.78984442 69.69858713 21.27244531 81.33841805 11.53662109 91.84179688 C-4.06892557 106.24691687 -24.91614053 110.59475816 -45.56103516 110.11914062 C-57.0414109 109.59383769 -67.63189257 106.21900146 -76.58056641 98.81054688 C-77.16708984 97.92496094 -77.75361328 97.039375 -78.35791016 96.12695312 C-80.5000271 93.42649506 -80.5000271 93.42649506 -84.41650391 93.20898438 C-85.92928663 93.18102878 -87.44256717 93.17430429 -88.95556641 93.18554688 C-98.94504863 92.95775388 -108.26563983 91.66339856 -117.58056641 87.81054688 C-119.90805334 87.12374745 -122.24043296 86.45293645 -124.58056641 85.81054688 C-125.35444787 76.21441671 -122.23763997 69.76167846 -116.20556641 62.37304688 C-113.62106608 59.52959854 -110.97127827 57.33817827 -107.76416016 55.25976562 C-100.13237353 50.75775179 -100.13237353 50.75775179 -95.53369141 43.64257812 C-95.3494146 40.36811407 -95.3494146 40.36811407 -95.51416016 37.07226562 C-95.73078287 26.43226745 -89.33359667 16.04823317 -82.39697266 8.40429688 C-61.03958255 -12.07635308 -24.82483323 -18.68189488 0 0 Z " fill="#83A2A4" transform="translate(130.58056640625,32.189453125)"/>
<path d="M0 0 C8.23402657 3.18415529 12.90974117 9.06327473 18 16 C18.66 16.66 19.32 17.32 20 18 C20.33 17.34 20.66 16.68 21 16 C28.14369501 28.75659824 28.14369501 28.75659824 27 36 C25.04762899 41.24699709 20.8763793 43.68934643 16 46 C11.71221564 47.51102698 7.38513177 48.80344728 3 50 C6.63 50 10.26 50 14 50 C10.72961573 53.27038427 10.26582158 53.40724896 5.9375 53.6875 C4.97070312 53.75195312 4.00390625 53.81640625 3.0078125 53.8828125 C-1.33136555 54.05187138 -5.65862522 54.08475569 -10 54 C-10 53.67 -10 53.34 -10 53 C-10.61488281 52.93683594 -11.22976562 52.87367187 -11.86328125 52.80859375 C-14.41151345 52.42249796 -16.61176016 51.97913576 -19 51 C-20.875 47.5625 -20.875 47.5625 -22 44 C-22.98020375 42.9805881 -23.97803008 41.97753644 -25 41 C-29.22161914 33.22333316 -26.55599394 23.83923542 -24.33203125 15.796875 C-22.72579494 10.74693729 -20.04435065 7.37769944 -16 4 C-15.071875 3.175 -14.14375 2.35 -13.1875 1.5 C-8.62625276 -0.64646929 -4.94737648 -0.93401798 0 0 Z " fill="#D2D1D1" transform="translate(77,49)"/>
<path d="M0 0 C1.16666667 0.875 2.33333333 1.75 3.5 2.625 C4.2321875 3.16640625 4.964375 3.7078125 5.71875 4.265625 C7.18732334 5.38214309 8.62828374 6.53645765 10.03125 7.734375 C10.6809375 8.27578125 11.330625 8.8171875 12 9.375 C12.5775 9.87773438 13.155 10.38046875 13.75 10.8984375 C19.68417662 13.80371147 26.63256643 11.6016625 32.6875 10 C41.4685529 7.7139915 41.4685529 7.7139915 46 8 C46.33 7.01 46.66 6.02 47 5 C48.59343983 6.59343983 48.20870742 8.23178791 48.25 10.4375 C48.19059236 16.34431662 47.48713812 23.23449606 43.39453125 27.78515625 C42.93433594 28.18605469 42.47414062 28.58695313 42 29 C41.34 28.01 40.68 27.02 40 26 C37.19627609 25.6871381 34.55924457 25.53942093 31.75 25.5 C21.74930913 25.16226748 12.3232563 23.85629704 3 20 C0.67251306 19.31320058 -1.65986656 18.64238957 -4 18 C-4.45164525 10.88658735 -3.32797915 6.28453206 0 0 Z " fill="#4B4C4C" transform="translate(10,100)"/>
<path d="M0 0 C3.59083338 1.39370245 4.77501652 3.46927042 6.94140625 6.62109375 C10.05576999 11.05461346 13.2560637 14.92994514 17.3515625 18.49609375 C18.56640625 19.99609375 18.56640625 19.99609375 18.56640625 23.99609375 C15.23678582 24.84474972 11.90222277 25.67216043 8.56640625 26.49609375 C7.63183594 26.73457031 6.69726562 26.97304687 5.734375 27.21875 C-7.57767035 30.47694292 -7.57767035 30.47694292 -12.96484375 27.68359375 C-13.61453125 27.12671875 -14.26421875 26.56984375 -14.93359375 25.99609375 C-15.60390625 25.43921875 -16.27421875 24.88234375 -16.96484375 24.30859375 C-17.44953125 23.87546875 -17.93421875 23.44234375 -18.43359375 22.99609375 C-18.43359375 14.69395554 -12.98412822 9.72814839 -7.5234375 3.98828125 C-3.29767846 -0.00529322 -3.29767846 -0.00529322 0 0 Z " fill="#BCBDBE" transform="translate(36.43359375,84.00390625)"/>
<path d="M0 0 C4.55674351 1.95289008 6.85692907 4.55511215 9 9 C9.78398148 14.32157127 9.65244651 18.59473058 7.375 23.5 C4.66452173 26.35313502 2.73981231 27.7533959 -1 29 C-4.47455367 29.06095708 -6.84022434 29.02561138 -9.51953125 26.65625 C-14.00793898 21.37881382 -14.39596438 17.74685866 -14.35546875 10.9921875 C-13.82089079 6.49233342 -12.35398199 4.96398408 -9 2 C-5.4913604 -0.33909307 -4.12910567 -0.41291057 0 0 Z " fill="#262929" transform="translate(73,61)"/>
<path d="M0 0 C2.91517292 1.07401108 4.77810176 1.77810176 7 4 C7.99 3.67 8.98 3.34 10 3 C10.1546875 4.85625 10.1546875 4.85625 10.3125 6.75 C10.75742052 10.2968312 11.40665558 12.40665558 14 15 C14.99 15.66 15.98 16.32 17 17 C17.495 18.485 17.495 18.485 18 20 C18.99 20.33 19.98 20.66 21 21 C24.47981859 25.7716576 25.48241483 30.21102202 25 36 C24.01 36.495 24.01 36.495 23 37 C22.505 33.04 22.505 33.04 22 29 C21.34 29.66 20.68 30.32 20 31 C19.74605469 30.25105469 19.49210937 29.50210938 19.23046875 28.73046875 C17.92054941 25.82369536 16.65564061 24.43467647 14.3125 22.3125 C9.80790938 18.00555138 6.40739246 13.1962735 3 8 C-4.29468638 8.80026095 -7.01605946 12.36430403 -11.484375 17.80859375 C-14.17535802 21.36227426 -15.83134648 24.64410959 -17 29 C-19.31 27.35 -21.62 25.7 -24 24 C-21.07086997 14.64675523 -10.74926404 8.52633098 -2.8984375 3.375 C-0.87288981 2.13082675 -0.87288981 2.13082675 0 0 Z " fill="#567374" transform="translate(35,77)"/>
<path d="M0 0 C4.12072937 3.74289745 6.45989634 8.70654179 7.359375 14.19140625 C7.52874241 18.6542376 6.91444545 21.63017244 4 25 C-2.08459388 30.08609642 -9.47936295 31.94787495 -17 34 C-13.37 34 -9.74 34 -6 34 C-9.27038427 37.27038427 -9.73417842 37.40724896 -14.0625 37.6875 C-15.02929688 37.75195312 -15.99609375 37.81640625 -16.9921875 37.8828125 C-21.33136555 38.05187138 -25.65862522 38.08475569 -30 38 C-30 37.67 -30 37.34 -30 37 C-32.97 36.34 -35.94 35.68 -39 35 C-39.33 33.35 -39.66 31.7 -40 30 C-39.195625 30.309375 -38.39125 30.61875 -37.5625 30.9375 C-33.37750913 32.18565517 -29.33693899 32.6337696 -25 33 C-24.67 32.34 -24.34 31.68 -24 31 C-21.86871257 30.76319029 -19.73662337 30.53198139 -17.6015625 30.33203125 C-10.01183419 29.36337223 -3.03017693 26.77060995 3 22 C4.73883881 18.52232238 3.71418197 14.72351282 3 11 C2.29572094 9.00615539 2.29572094 9.00615539 1.4375 7.1875 C0 4 0 4 0 0 Z " fill="#C0C6C7" transform="translate(97,65)"/>
<path d="M0 0 C-0.66498383 4.38889325 -2.18757677 7.9811485 -4 12 C-4.69867188 11.84402344 -5.39734375 11.68804687 -6.1171875 11.52734375 C-7.48230469 11.23537109 -7.48230469 11.23537109 -8.875 10.9375 C-9.77992187 10.74027344 -10.68484375 10.54304688 -11.6171875 10.33984375 C-14.01014125 9.76797843 -14.01014125 9.76797843 -16 11 C-22.38792102 10.65156794 -22.38792102 10.65156794 -24.9375 7.9375 C-25.288125 7.298125 -25.63875 6.65875 -26 6 C-23.69 5.34 -21.38 4.68 -19 4 C-19 3.34 -19 2.68 -19 2 C-18.05125 2.04125 -17.1025 2.0825 -16.125 2.125 C-11.99964252 2.14187263 -8.15218418 1.32299314 -4.13671875 0.4375 C-2 0 -2 0 0 0 Z " fill="#6E6F6F" transform="translate(56,109)"/>
<path d="M0 0 C0.66 0.33 1.32 0.66 2 1 C0.9171875 2.4540625 0.9171875 2.4540625 -0.1875 3.9375 C-2.23563342 6.77027045 -3.8990441 9.6446538 -5.5 12.75 C-7.48555213 16.41611349 -9.08116624 18.29179041 -13 20 C-13.763125 20.391875 -14.52625 20.78375 -15.3125 21.1875 C-15.869375 21.455625 -16.42625 21.72375 -17 22 C-14.30511531 12.58842303 -7.51914601 5.95265726 0 0 Z " fill="#698D8E" transform="translate(56,34)"/>
<path d="M0 0 C0.33 1.32 0.66 2.64 1 4 C-0.010625 4.020625 -1.02125 4.04125 -2.0625 4.0625 C-8.44800939 4.97840135 -12.13272357 10.71728118 -15.8125 15.5625 C-17.86291006 18.54368832 -19.05813727 21.48942074 -20 25 C-20.99 24.34 -21.98 23.68 -23 23 C-22.45981194 14.35699108 -14.30300953 8.17547439 -8.3671875 2.78515625 C-5.50430463 0.62618352 -3.5318909 0 0 0 Z " fill="#989797" transform="translate(38,81)"/>
<path d="M0 0 C1.25683594 0.47566406 1.25683594 0.47566406 2.5390625 0.9609375 C6.2340989 2.07028251 9.52889627 2.40729602 13.375 2.625 C14.62023437 2.69976562 15.86546875 2.77453125 17.1484375 2.8515625 C18.08945313 2.90054688 19.03046875 2.94953125 20 3 C19.01 3.66 18.02 4.32 17 5 C22.445 5.495 22.445 5.495 28 6 C24.31912647 8.45391569 21.55644412 8.22802759 17.3125 8.125 C16.61060547 8.11597656 15.90871094 8.10695313 15.18554688 8.09765625 C13.45688475 8.07413704 11.72839855 8.03826713 10 8 C10 7.67 10 7.34 10 7 C5.545 6.01 5.545 6.01 1 5 C0.67 3.35 0.34 1.7 0 0 Z " fill="#A3BFC0" transform="translate(57,95)"/>
<path d="M0 0 C0.99 0.66 1.98 1.32 3 2 C2.11441406 2.40734375 1.22882812 2.8146875 0.31640625 3.234375 C-7.76062811 7.53451579 -16.04662201 15.13986603 -19 24 C-20.32 23.34 -21.64 22.68 -23 22 C-19.88324564 12.04763665 -8.34642152 5.46772082 0 0 Z " fill="#7C7B7A" transform="translate(34,79)"/>
<path d="M0 0 C3.35727244 1.63959817 5.19665116 3.51788911 7.6875 6.3125 C8.26886719 6.94929688 8.85023437 7.58609375 9.44921875 8.2421875 C15.79708904 15.29537671 15.79708904 15.29537671 17.6875 19.3125 C17.3575 19.9725 17.0275 20.6325 16.6875 21.3125 C16.08164063 20.44367188 15.47578125 19.57484375 14.8515625 18.6796875 C9.35457043 11.02268786 3.90524615 3.53477526 -5.98828125 1.859375 C-11.00466023 1.65128817 -14.16449126 2.33111872 -18.3125 5.3125 C-18.9725 4.9825 -19.6325 4.6525 -20.3125 4.3125 C-13.67298477 -1.4609915 -8.47788566 -1.75956117 0 0 Z " fill="#7D9497" transform="translate(80.3125,47.6875)"/>
<path d="M0 0 C-0.71285156 0.50789063 -1.42570312 1.01578125 -2.16015625 1.5390625 C-10.76876808 7.72614018 -17.93412095 13.24558115 -24 22 C-24 16.54992523 -20.77217421 11.9763595 -17.203125 7.99609375 C-13.35195799 4.4299131 -5.43114288 -2.71557144 0 0 Z " fill="#749899" transform="translate(75,26)"/>
<path d="M0 0 C2 1.125 2 1.125 4 3 C4.5625 5.875 4.5625 5.875 4 9 C2.37446717 10.70680947 0.70884005 12.37660195 -1 14 C-1 15.32 -1 16.64 -1 18 C-1.99 18 -2.98 18 -4 18 C-4.45164525 10.88658735 -3.32797915 6.28453206 0 0 Z " fill="#424344" transform="translate(10,100)"/>
<path d="M0 0 C1.94268841 2.91403262 3.46395304 5.85808576 5 9 C5.99 8.67 6.98 8.34 8 8 C10.27974401 7.77698156 12.55777666 7.62134081 14.84375 7.4765625 C17.40771424 6.90988924 18.34237456 5.98702536 20 4 C19.63075651 6.58470444 18.96729184 8.04579142 17.4375 10.1875 C14.10010306 12.66915414 11.15537634 13.49449776 7 13 C3.92079499 11.31802565 1.58951494 9.17902989 0 6 C-0.039992 4.00039988 -0.04346799 1.99952758 0 0 Z " fill="#1B1D1E" transform="translate(60,77)"/>
<path d="M0 0 C2.89148204 1.52247887 4.70662256 3.50734094 6.83984375 5.96875 C7.44183594 6.61585937 8.04382813 7.26296875 8.6640625 7.9296875 C14.15480505 13.92161344 14.15480505 13.92161344 14.83984375 17.96875 C11.49818264 14.76075533 8.51429287 11.30384585 5.5234375 7.7734375 C3.77218334 5.75751903 3.77218334 5.75751903 0.83984375 3.96875 C0.83984375 3.30875 0.83984375 2.64875 0.83984375 1.96875 C-3.51348361 1.12851812 -7.60458144 0.86104005 -12.03515625 0.90625 C-13.18757813 0.91527344 -14.34 0.92429688 -15.52734375 0.93359375 C-16.39617187 0.94519531 -17.265 0.95679688 -18.16015625 0.96875 C-13.15913763 -4.03226862 -5.96463572 -2.47286241 0 0 Z " fill="#A8BBC0" transform="translate(82.16015625,47.03125)"/>
<path d="M0 0 C0.66 0.33 1.32 0.66 2 1 C2.2361959 7.40353322 1.823321 12.84629161 0 19 C-0.33 19 -0.66 19 -1 19 C-1.22419881 17.43969749 -1.42863758 15.8765495 -1.625 14.3125 C-1.79902344 13.00732422 -1.79902344 13.00732422 -1.9765625 11.67578125 C-2.00301641 8.65562625 -1.27948623 6.71036204 0 4 C-0.81984375 4.22816406 -1.6396875 4.45632812 -2.484375 4.69140625 C-4.10085937 5.12259766 -4.10085937 5.12259766 -5.75 5.5625 C-6.81734375 5.85253906 -7.8846875 6.14257812 -8.984375 6.44140625 C-11.84335927 6.97098494 -13.31597383 6.98370862 -16 6 C-14.27318563 5.49193553 -12.54342021 4.99389533 -10.8125 4.5 C-9.36810547 4.08234375 -9.36810547 4.08234375 -7.89453125 3.65625 C-5.14654124 3.03322392 -2.80401584 2.87697188 0 3 C0 2.01 0 1.02 0 0 Z " fill="#48585B" transform="translate(56,105)"/>
<path d="M0 0 C0.433125 0.61875 0.86625 1.2375 1.3125 1.875 C2.99740483 4.2197245 2.99740483 4.2197245 6 6 C6.33 6.99 6.66 7.98 7 9 C7.99 9.33 8.98 9.66 10 10 C13.47981859 14.7716576 14.48241483 19.21102202 14 25 C13.34 25.33 12.68 25.66 12 26 C11.94005859 25.09121094 11.94005859 25.09121094 11.87890625 24.1640625 C10.85501277 15.94763337 6.8087244 11.63532964 1 6 C0.34 5.34 -0.32 4.68 -1 4 C-0.625 1.875 -0.625 1.875 0 0 Z " fill="#62888A" transform="translate(46,88)"/>
<path d="M0 0 C4.10738104 5.07382364 6.64052965 11.38119362 6 18 C5.01 16.68 4.02 15.36 3 14 C3 16.64 3 19.28 3 22 C2.34 22.33 1.68 22.66 1 23 C0.02840067 15.31395526 -0.10920422 7.74136601 0 0 Z " fill="#618586" transform="translate(147,52)"/>
<path d="M0 0 C0 0.33 0 0.66 0 1 C-2.66419818 1.67815954 -5.33065758 2.34265777 -8 3 C-8.74378906 3.19078125 -9.48757812 3.3815625 -10.25390625 3.578125 C-15.29243598 4.80489746 -19.81116982 5.45516054 -25 5 C-25.66 4.01 -26.32 3.02 -27 2 C-17.87995448 0.46859805 -9.25599658 -0.27675737 0 0 Z " fill="#9EA2A4" transform="translate(51,108)"/>
<path d="M0 0 C2.39446415 1.43869064 4.00202012 3.00202012 6 5 C5.67 5.99 5.34 6.98 5 8 C4.67 7.01 4.34 6.02 4 5 C0.31567203 2.99993624 -2.8501264 2.4812658 -7 3 C-10.00225532 5.02477684 -12.51018243 7.3791394 -15 10 C-15.33 9.34 -15.66 8.68 -16 8 C-15.04578192 6.85073734 -14.08647955 5.70569459 -13.125 4.5625 C-12.59132812 3.92441406 -12.05765625 3.28632812 -11.5078125 2.62890625 C-8.36932436 -0.76163664 -4.34940737 -0.75711906 0 0 Z " fill="#B5B5B4" transform="translate(74,59)"/>
<path d="M0 0 C0 0.66 0 1.32 0 2 C-1.5159375 2.495 -1.5159375 2.495 -3.0625 3 C-9.80357803 5.8851267 -14.29066109 12.37717154 -17 19 C-17.68636625 21.23525035 -17.68636625 21.23525035 -18 23 C-18.66 23 -19.32 23 -20 23 C-20 14.74089034 -14.6023125 9.65294741 -9.0546875 4.02734375 C-4.65602837 0 -4.65602837 0 0 0 Z " fill="#AAABAA" transform="translate(38,84)"/>
<path d="M0 0 C-0.33 0.66 -0.66 1.32 -1 2 C-0.71758117 4.3400417 -0.38749213 6.67504723 0 9 C-1.98 9 -3.96 9 -6 9 C-6 7.35 -6 5.7 -6 4 C-7.32 3.67 -8.64 3.34 -10 3 C-6.68152292 -0.06320961 -4.44849969 -0.3033068 0 0 Z " fill="#666766" transform="translate(73,61)"/>
<path d="M0 0 C0.66 0.33 1.32 0.66 2 1 C0.60926736 2.89975896 -0.78732802 4.79471601 -2.1875 6.6875 C-2.96480469 7.74324219 -3.74210937 8.79898438 -4.54296875 9.88671875 C-6.88619246 12.85579553 -9.27593444 15.39205801 -12 18 C-10.71914054 13.43693818 -9.02983259 10.38134347 -6 6.75 C-5.29875 5.89921875 -4.5975 5.0484375 -3.875 4.171875 C-2 2 -2 2 0 0 Z " fill="#5B7C7E" transform="translate(51,38)"/>
<path d="M0 0 C4.50436669 4.06554587 6.82910195 9.56470274 7.25 15.5625 C7.1675 16.366875 7.085 17.17125 7 18 C6.34 18 5.68 18 5 18 C2.67344909 12.01589463 0.57065878 6.41991126 0 0 Z " fill="#AEBFC3" transform="translate(97,65)"/>
<path d="M0 0 C-0.556875 0.06058594 -1.11375 0.12117188 -1.6875 0.18359375 C-6.79793457 0.74470565 -11.89999553 1.35090852 -17 2 C-17 -1 -17 -1 -16 -2 C-9.66963423 -3.21737803 -5.66211895 -2.92046135 0 0 Z " fill="#90AFB2" transform="translate(107,27)"/>
<path d="M0 0 C0.66 0.33 1.32 0.66 2 1 C-3.28 5.95 -8.56 10.9 -14 16 C-14 13 -14 13 -11.953125 10.625 C-11.06109375 9.75875 -10.1690625 8.8925 -9.25 8 C-7.92742188 6.700625 -7.92742188 6.700625 -6.578125 5.375 C-4.45751489 3.42146826 -2.34701696 1.66704009 0 0 Z " fill="#8CADAE" transform="translate(71,30)"/>
<path d="M0 0 C1.46067199 0.45082469 2.91848032 0.91093537 4.375 1.375 C5.18710937 1.63023438 5.99921875 1.88546875 6.8359375 2.1484375 C9 3 9 3 11 5 C10 6 10 6 6.625 6.1875 C3 6 3 6 0 4 C0 2.68 0 1.36 0 0 Z " fill="#98B4B6" transform="translate(57,95)"/>
<path d="M0 0 C3.27481575 0.97359387 4.76205109 1.69066641 6.875 4.4375 C8 7 8 7 7 10 C6.01 9.67 5.02 9.34 4 9 C3.29788106 7.34795544 2.63028587 5.68076231 2 4 C1.34 3.67 0.68 3.34 0 3 C0 2.01 0 1.02 0 0 Z " fill="#4E6C6F" transform="translate(35,77)"/>
<path d="M0 0 C0.99 0.66 1.98 1.32 3 2 C2.12085937 2.39832031 1.24171875 2.79664062 0.3359375 3.20703125 C-3.07985576 5.04292013 -5.54654714 7.05015882 -8.375 9.6875 C-9.68597656 10.89986328 -9.68597656 10.89986328 -11.0234375 12.13671875 C-11.67570312 12.75160156 -12.32796875 13.36648437 -13 14 C-13 11 -13 11 -11.6796875 9.31640625 C-7.99156424 5.73206135 -4.39443818 2.67953548 0 0 Z " fill="#838281" transform="translate(34,79)"/>
<path d="M0 0 C0.66 0 1.32 0 2 0 C2.08121924 1.60332791 2.13929134 3.20784026 2.1875 4.8125 C2.22230469 5.70582031 2.25710937 6.59914063 2.29296875 7.51953125 C1.95081002 10.41647515 1.24606427 11.22555028 -1 13 C-1.66 11.35 -2.32 9.7 -3 8 C-2.34 7.67 -1.68 7.34 -1 7 C-0.59270772 4.67843403 -0.25561323 2.3431213 0 0 Z " fill="#2C4347" transform="translate(53,116)"/>
<path d="M0 0 C1.89470816 0.0685495 3.7916834 0.08480372 5.6875 0.0625 C6.68136719 0.05347656 7.67523438 0.04445313 8.69921875 0.03515625 C9.45847656 0.02355469 10.21773437 0.01195313 11 0 C9.98046875 1.51953125 9.98046875 1.51953125 8 3 C5.32891426 3.05546517 2.94707177 2.96547069 0.3125 2.6875 C-0.38939453 2.62626953 -1.09128906 2.56503906 -1.81445312 2.50195312 C-3.5442967 2.34897376 -5.27238497 2.17637398 -7 2 C-5.26578631 -1.46842738 -3.40984787 -1.13661596 0 0 Z " fill="#B0CACC" transform="translate(80,99)"/>
<path d="M0 0 C4.95 0 9.9 0 15 0 C14.34 1.32 13.68 2.64 13 4 C12.06027344 3.76603516 12.06027344 3.76603516 11.1015625 3.52734375 C10.28429688 3.33269531 9.46703125 3.13804688 8.625 2.9375 C7.81289063 2.74027344 7.00078125 2.54304688 6.1640625 2.33984375 C3.95838716 1.77890681 3.95838716 1.77890681 2 3 C1.34 2.67 0.68 2.34 0 2 C0 1.34 0 0.68 0 0 Z " fill="#5C5C5C" transform="translate(38,117)"/>
<path d="M0 0 C2 1.125 2 1.125 4 3 C4.5 6 4.5 6 4 9 C2 10.875 2 10.875 0 12 C0.33 9.03 0.66 6.06 1 3 C0.34 2.67 -0.32 2.34 -1 2 C-0.67 1.34 -0.34 0.68 0 0 Z " fill="#4F5051" transform="translate(10,100)"/>
<path d="M0 0 C0 3 0 3 -2 6 C-2.165 6.845625 -2.33 7.69125 -2.5 8.5625 C-3 11 -3 11 -5 13 C-4.93976735 11.39479996 -4.85091401 9.79065673 -4.75 8.1875 C-4.70359375 7.29417969 -4.6571875 6.40085937 -4.609375 5.48046875 C-4 3 -4 3 -1.953125 1.17578125 C-1.30859375 0.78777344 -0.6640625 0.39976563 0 0 Z " fill="#678B8D" transform="translate(45,61)"/>
<path d="M0 0 C0.66 0 1.32 0 2 0 C6.3346297 4.71709702 6.37496767 8.52765174 6.140625 14.8046875 C6.09421875 15.52914062 6.0478125 16.25359375 6 17 C5.67 17 5.34 17 5 17 C4.96132812 16.12988281 4.96132812 16.12988281 4.921875 15.2421875 C4.51016897 9.5718727 3.41321793 6.51425597 0 2 C0 1.34 0 0.68 0 0 Z " fill="#454645" transform="translate(76,64)"/>
<path d="M0 0 C0.66 0.33 1.32 0.66 2 1 C-1.3 4.63 -4.6 8.26 -8 12 C-8.33 11.34 -8.66 10.68 -9 10 C-7.8758824 8.70756532 -6.75067408 7.41607925 -5.625 6.125 C-4.99851562 5.40570313 -4.37203125 4.68640625 -3.7265625 3.9453125 C-2.52573166 2.5923402 -1.2791655 1.2791655 0 0 Z " fill="#C4C3C3" transform="translate(63,51)"/>
<path d="M0 0 C1.32 0.33 2.64 0.66 4 1 C2.8553125 1.8971875 2.8553125 1.8971875 1.6875 2.8125 C-0.3483575 4.46959332 -2.1978279 6.10297674 -4 8 C-4.33 7.34 -4.66 6.68 -5 6 C-3.35 4.02 -1.7 2.04 0 0 Z " fill="#AFAFAF" transform="translate(63,61)"/>
<path d="M0 0 C0.66 0.33 1.32 0.66 2 1 C-1.625 5.875 -1.625 5.875 -5 7 C-3.70700306 4.11562221 -2.34058637 2.12780579 0 0 Z " fill="#628486" transform="translate(51,38)"/>
<path d="M0 0 C0.33 1.32 0.66 2.64 1 4 C-1.375 3.6875 -1.375 3.6875 -4 3 C-4.66 2.01 -5.32 1.02 -6 0 C-3.50907189 -1.24546405 -2.58919267 -0.7767578 0 0 Z " fill="#5A5B5A" transform="translate(36,115)"/>
<path d="M0 0 C0.99 0.33 1.98 0.66 3 1 C2 4 2 4 -1 6 C-3.1875 5.625 -3.1875 5.625 -5 5 C-3.35 3.35 -1.7 1.7 0 0 Z " fill="#323A3C" transform="translate(74,80)"/>
<path d="M0 0 C0.33 1.32 0.66 2.64 1 4 C-1.97 4 -4.94 4 -8 4 C-6 1 -6 1 -4 0.3125 C-2 0 -2 0 0 0 Z " fill="#91908F" transform="translate(38,81)"/>
<path d="M0 0 C1.70840281 1.63412443 2.93453047 2.86906094 4 5 C4.039992 6.99960012 4.04346799 9.00047242 4 11 C0.85041169 7.57653445 0.43820891 4.55737263 0 0 Z " fill="#A7B8BC" transform="translate(97,65)"/>
<path d="M0 0 C1.3609623 2.7219246 0.70366248 4.1831957 0.0625 7.125 C-0.13214844 8.03507812 -0.32679687 8.94515625 -0.52734375 9.8828125 C-0.68332031 10.58148438 -0.83929688 11.28015625 -1 12 C-1.33 12 -1.66 12 -2 12 C-3.125 4.375 -3.125 4.375 -2 1 C-1.34 0.67 -0.68 0.34 0 0 Z " fill="#92A4A5" transform="translate(52,65)"/>
<path d="M0 0 C2.94721162 2.74395564 5.19168608 5.38337216 7 9 C6.67 9.66 6.34 10.32 6 11 C3.69 8.03 1.38 5.06 -1 2 C-0.67 1.34 -0.34 0.68 0 0 Z " fill="#93A5A8" transform="translate(91,58)"/>
<path d="M0 0 C1.9375 0.75 1.9375 0.75 4 2 C4.75 4.125 4.75 4.125 5 6 C2.525 5.01 2.525 5.01 0 4 C0 2.68 0 1.36 0 0 Z " fill="#8FAFAF" transform="translate(57,95)"/>
<path d="M0 0 C0.66 0.33 1.32 0.66 2 1 C-0.31 3.31 -2.62 5.62 -5 8 C-5 5 -5 5 -2.5 2.3125 C-1.675 1.549375 -0.85 0.78625 0 0 Z " fill="#5B7A7E" transform="translate(51,35)"/>
<path d="M0 0 C0 3 0 3 0 3 Z " fill="#557578" transform="translate(43,44)"/>
<path d="M0 0 C0.66 0.33 1.32 0.66 2 1 C1.01 1 0.02 1 -1 1 C-0.67 0.67 -0.34 0.34 0 0 Z " fill="#618283" transform="translate(55,32)"/>
<path d="" fill="#314C51" transform="translate(0,0)"/>
<path d="" fill="#324C51" transform="translate(0,0)"/>
<path d="" fill="#587579" transform="translate(0,0)"/>
<path d="" fill="#5F8183" transform="translate(0,0)"/>
<path d="" fill="#628485" transform="translate(0,0)"/>
<path d="" fill="#648487" transform="translate(0,0)"/>
<path d="" fill="#66878A" transform="translate(0,0)"/>
</svg>
